<mxfile host="app.diagrams.net" modified="2020-09-25T08:50:23.702Z" agent="5.0 (Macintosh; Intel Mac OS X 10_15_6) AppleWebKit/605.1.15 (KHTML, like Gecko) Version/14.0 Safari/605.1.15" etag="Xxk-5QJ1zGEuaLk-aSK-" version="13.7.5" type="github">
  <diagram name="Page-1" id="9361dd3d-8414-5efd-6122-117bd74ce7a7">
    <mxGraphModel dx="2061" dy="1249" grid="1" gridSize="10" guides="1" tooltips="1" connect="1" arrows="1" fold="1" page="0" pageScale="1.5" pageWidth="826" pageHeight="1169" background="#ffffff" math="0" shadow="0">
      <root>
        <mxCell id="0" />
        <mxCell id="1" parent="0" />
        <mxCell id="5oQiBaNHnoRx4HpLFsfs-90" value="Actor" style="shape=umlActor;verticalLabelPosition=bottom;verticalAlign=top;html=1;" vertex="1" parent="1">
          <mxGeometry x="-570" y="90" width="30" height="60" as="geometry" />
        </mxCell>
        <mxCell id="5oQiBaNHnoRx4HpLFsfs-92" value="Object" style="html=1;" vertex="1" parent="1">
          <mxGeometry x="-480" y="-60" width="110" height="50" as="geometry" />
        </mxCell>
      </root>
    </mxGraphModel>
  </diagram>
</mxfile>
